<svg xmlns="http://www.w3.org/2000/svg" viewBox="0 0 90 39.06"><g id="Layer_2" data-name="Layer 2"><g id="Layer_1-2" data-name="Layer 1"><path id="path-1" d="M25.68 35.81c0 1.82.25 2.19 1.46 2.92v.06h-6.49V28c0-1.91-.17-2.3-1.49-3.06v-.06h6.51v10.93zm-7.41.84a1.67 1.67 0 0 0 1.59-.85 4 4 0 0 1-4.11 3.25c-3 0-4.43-2.16-4.43-4.88V28c0-1.91-.17-2.3-1.46-3.06v-.06h6.48v9.43c.05 1.24.66 2.34 1.93 2.34zm16.28-.93c0 1.85.65 2.33 2.16 3v.06H28.2v-.06c1.24-.79 1.32-1.15 1.32-3V28c0-1.91-.17-2.3-1.49-3.06v-.06h6.51zm4.92-11.09a3.55 3.55 0 0 1 3.14 4l-4.73 1.89v-.06c.85-1.67.69-3.73-.91-4a1.58 1.58 0 0 0-1.62.5 3.71 3.71 0 0 1 4.11-2.33zm32.6 12.12a4.42 4.42 0 0 0 4.26-2.49l.2.08A6.33 6.33 0 0 1 70 39.06c-4 0-7.61-2.64-7.61-7.23a7.36 7.36 0 0 1 7.34-7.23v.06c-2.83.54-4.36 12.08 2.32 12.08zm-3-5.78c5.14 0 3.64-5.64 1.4-6.28v-.08c4.08.3 6.16 3 6.16 6.64h-7.48zM6.48 20v4.88h2.79v.09l-2.35.48a.41.41 0 0 0-.41.41v10.08c0 1.68.32 2 .62 2.26a4.76 4.76 0 0 0 .71.53v.06H5.92c-2.58 0-4.43-1.24-4.41-4.46v-8.74H0v-.31A8.15 8.15 0 0 0 6.2 20h.28zm78.35 9.24C88.49 30.4 90 31.66 90 34.38a4.76 4.76 0 0 1-5.26 4.56 2.11 2.11 0 0 0 1.85-2.09c0-1.47-1.14-2.06-3.24-2.71-3.45-1.07-5-2.34-5-5a4.33 4.33 0 0 1 4.51-4.34v.06a1.83 1.83 0 0 0-1.55 1.81c0 1.47.91 1.86 3.49 2.65zm-.52-4.51c2 .3 2.86.47 4.34-.08v4.26h-.19a7.27 7.27 0 0 0-4.15-4.07zM79.08 34.8a7.73 7.73 0 0 0 4 4v.11c-2.22-.35-3.27-.38-4.2.19v-4.3zM60 35.72c0 1.85.08 2.22 1.32 3v.06h-7.65v-.06c1.21-.79 1.29-1.15 1.29-3v-13c0-1.79-.49-2.57-1.66-3v-.17l6.7-1.2v17.37zM17.7 12.37c-2.11.67-3.63 1.65-3.63 3.5a2.25 2.25 0 0 0 3.59 2v.05c-2 3.8-8.29 3.25-8.29-.89 0-2.62 2.31-3.93 8.29-4.71zm-3-1.47l-.05.12-4-1c.31-3 2.89-3.95 5.7-4v.05c-1.48.3-2.42 2.84-1.61 4.83zm9.33 9a4.93 4.93 0 0 0 .71.53v.06h-1.89c-2.58 0-4.46-1.24-4.43-4.46v-5.34c0-2.95-.37-4.3-1.5-4.62V6c4.26.11 6.49 1.53 6.49 4.9v6.67c0 1.71.32 1.98.59 2.28zm17.13-2.48c0 1.85.08 2.22 1.32 3v.06h-7.64v-.06c1.21-.79 1.29-1.15 1.29-3v-13c0-1.79-.49-2.57-1.66-3.05v-.18L41.16 0v17.37zm-8.87 0c0 1.85.08 2.22 1.32 3v.06H26v-.06c1.21-.79 1.29-1.15 1.29-3v-13c0-1.79-.49-2.57-1.66-3.05v-.18L32.29 0v17.37zM50.07 20v4.88h2.78l-.08.29-2.29.28a.41.41 0 0 0-.41.41v10.08c0 1.68.32 2 .62 2.26a4.82 4.82 0 0 0 .71.53v.06h-1.9c-2.58 0-4.43-1.24-4.41-4.46v-8.74h-1.51v-.31a8.15 8.15 0 0 0 6.2-5.28h.28z" fill="#d9534d"/></g></g></svg>